<svg width="34" height="35" viewBox="0 0 34 35" fill="none" xmlns="http://www.w3.org/2000/svg">
<g clip-path="url(#clip0_101_233)">
<path d="M26.3829 11.6825C26.1564 11.4624 25.8387 11.3624 25.5277 11.4135C25.2162 11.4644 24.9472 11.66 24.8027 11.9406C24.3057 12.9061 23.6745 13.7934 22.9318 14.5777C23.0058 14.0111 23.0431 13.4412 23.0431 12.8697C23.0431 11.7731 22.8961 10.6447 22.6061 9.51529C21.6527 5.80577 19.1525 2.66868 15.7468 0.908446C15.4503 0.755247 15.097 0.760626 14.8053 0.92279C14.5136 1.08502 14.3226 1.38245 14.2964 1.71515C14.0309 5.0862 12.2945 8.1531 9.52981 10.1315C9.49322 10.1578 9.4569 10.1845 9.42057 10.2111C9.34534 10.2661 9.27441 10.3182 9.20814 10.3619C9.19778 10.3688 9.18749 10.3759 9.17739 10.3831C7.43861 11.628 6.00391 13.2875 5.0282 15.1827C4.03675 17.1104 3.53406 19.179 3.53406 21.3309C3.53406 22.4271 3.68101 23.5556 3.97088 24.6851C5.50055 30.6389 10.8585 34.7971 17.0004 34.7971C24.4253 34.7971 30.4659 28.7562 30.4659 21.3309C30.4659 17.6693 29.0159 14.2427 26.3829 11.6825Z" fill="#FF5555"/>
<circle cx="16" cy="20.7972" r="4" fill="white"/>
</g>
<defs>
<clipPath id="clip0_101_233">
<rect width="34" height="34" fill="white" transform="translate(0 0.797241)"/>
</clipPath>
</defs>
</svg>
